<svg xmlns="http://www.w3.org/2000/svg" aria-hidden="true" style="position:absolute;width:0;height:0;overflow:hidden">
  <defs>
    <symbol id="logo-text" viewBox="0 0 82 32">
      <path d="M57.965 21.071h3.195l-4.212 5.096 4.582 5.533h-3.289l-4.345-5.39v5.39h-2.9v-10.629h2.9v5.162l4.069-5.162z"></path>
      <path d="M48.991 26.367c0 0.887-0.12 1.673-0.361 2.358-0.234 0.685-0.58 1.264-1.036 1.74-0.45 0.469-0.995 0.824-1.635 1.065-0.634 0.241-1.35 0.361-2.149 0.361-0.748 0-1.436-0.12-2.063-0.361-0.621-0.241-1.163-0.596-1.626-1.065-0.456-0.475-0.811-1.055-1.065-1.74-0.247-0.685-0.371-1.47-0.371-2.358 0-1.179 0.209-2.177 0.627-2.995s1.014-1.439 1.787-1.863c0.773-0.425 1.695-0.637 2.767-0.637 0.995 0 1.876 0.212 2.643 0.637 0.773 0.425 1.379 1.046 1.816 1.863 0.444 0.818 0.666 1.816 0.666 2.995zM41.642 26.367c0 0.697 0.076 1.283 0.228 1.759s0.39 0.833 0.713 1.074c0.323 0.241 0.745 0.361 1.264 0.361 0.513 0 0.929-0.12 1.245-0.361 0.323-0.241 0.558-0.599 0.704-1.074 0.152-0.475 0.228-1.062 0.228-1.759 0-0.704-0.076-1.287-0.228-1.749-0.146-0.469-0.38-0.821-0.704-1.055s-0.745-0.352-1.264-0.352c-0.767 0-1.325 0.263-1.673 0.789-0.342 0.526-0.513 1.315-0.513 2.367z"></path>
      <path d="M36.679 21.071v10.629h-2.909v-8.452h-3.85v8.452h-2.9v-10.629h9.659z"></path>
      <path d="M19.992 20.853c1.426 0 2.519 0.311 3.28 0.932s1.141 1.566 1.141 2.833v7.083h-2.025l-0.561-1.445h-0.076c-0.304 0.38-0.615 0.691-0.932 0.932s-0.681 0.418-1.093 0.532c-0.412 0.114-0.913 0.171-1.502 0.171-0.627 0-1.192-0.12-1.692-0.361-0.494-0.241-0.884-0.608-1.169-1.103-0.285-0.501-0.428-1.134-0.428-1.901 0-1.128 0.396-1.958 1.188-2.491 0.792-0.539 1.981-0.837 3.565-0.894l1.844-0.057v-0.466c0-0.558-0.146-0.967-0.437-1.226s-0.697-0.39-1.217-0.39c-0.513 0-1.017 0.073-1.512 0.219s-0.989 0.33-1.483 0.551l-0.96-1.958c0.564-0.298 1.195-0.532 1.892-0.704 0.703-0.171 1.429-0.257 2.177-0.257zM21.532 26.775l-1.122 0.038c-0.938 0.025-1.591 0.193-1.958 0.504-0.361 0.311-0.542 0.719-0.542 1.226 0 0.444 0.13 0.761 0.39 0.951 0.26 0.184 0.599 0.276 1.017 0.276 0.621 0 1.144-0.184 1.569-0.551 0.431-0.368 0.646-0.89 0.646-1.569v-0.875z"></path>
      <path d="M12.747 31.7h-2.938v-11.447h-3.404c-0.076 0.596-0.158 1.245-0.247 1.949s-0.181 1.413-0.276 2.13c-0.095 0.716-0.197 1.398-0.304 2.044-0.101 0.646-0.203 1.214-0.304 1.702-0.165 0.811-0.39 1.502-0.675 2.073-0.279 0.564-0.662 0.995-1.15 1.293-0.482 0.298-1.112 0.447-1.892 0.447-0.26 0-0.51-0.019-0.751-0.057-0.234-0.038-0.453-0.089-0.656-0.152v-2.415c0.165 0.057 0.33 0.105 0.494 0.143 0.165 0.032 0.345 0.048 0.542 0.048 0.254 0 0.463-0.082 0.627-0.247 0.171-0.171 0.323-0.459 0.456-0.865 0.133-0.412 0.266-0.979 0.399-1.702 0.057-0.317 0.133-0.764 0.228-1.34 0.095-0.583 0.203-1.264 0.323-2.044 0.12-0.786 0.244-1.642 0.371-2.567 0.133-0.925 0.26-1.889 0.38-2.89h8.775v13.899z"></path>
      <path d="M78.054 3.052c1.426 0 2.519 0.311 3.28 0.932s1.141 1.565 1.141 2.833v7.083h-2.025l-0.561-1.445h-0.076c-0.304 0.38-0.615 0.691-0.932 0.932s-0.681 0.418-1.093 0.532c-0.412 0.114-0.913 0.171-1.502 0.171-0.627 0-1.191-0.12-1.692-0.361-0.494-0.241-0.884-0.608-1.17-1.103-0.285-0.501-0.428-1.135-0.428-1.901 0-1.128 0.396-1.958 1.189-2.491 0.792-0.539 1.98-0.837 3.565-0.894l1.844-0.057v-0.466c0-0.558-0.146-0.967-0.437-1.226s-0.697-0.39-1.217-0.39c-0.513 0-1.017 0.073-1.512 0.219s-0.989 0.33-1.483 0.551l-0.96-1.958c0.564-0.298 1.194-0.532 1.892-0.704 0.704-0.171 1.429-0.257 2.177-0.257zM79.594 8.975l-1.122 0.038c-0.938 0.025-1.591 0.193-1.958 0.504-0.361 0.311-0.542 0.719-0.542 1.226 0 0.444 0.13 0.761 0.39 0.951 0.26 0.184 0.599 0.276 1.017 0.276 0.621 0 1.144-0.184 1.569-0.551 0.431-0.368 0.646-0.89 0.646-1.569v-0.875z"></path>
      <path d="M69.003 3.27h3.195l-4.212 5.096 4.583 5.533h-3.29l-4.345-5.391v5.39h-2.899v-10.629h2.899v5.162l4.069-5.162z"></path>
      <path d="M52.432 3.27v4.088h4.050v-4.088h2.9v10.629h-2.9v-4.383h-4.050v4.383h-2.9v-10.629h2.9z"></path>
      <path d="M38.694 3.27v4.202c0 0.216-0.010 0.488-0.029 0.818-0.013 0.323-0.032 0.653-0.057 0.989s-0.051 0.637-0.076 0.903c-0.025 0.266-0.044 0.447-0.057 0.542l4.906-7.454h3.489v10.629h-2.804v-4.24c0-0.349 0.013-0.732 0.038-1.15 0.025-0.425 0.054-0.824 0.086-1.198s0.054-0.656 0.067-0.846l-4.887 7.435h-3.48v-10.629h2.805z"></path>
      <path d="M34.293 5.448h-3.48v8.452h-2.9v-8.452h-3.489v-2.177h9.868v2.177z"></path>
      <path d="M18.472 3.052c1.426 0 2.519 0.311 3.28 0.932s1.141 1.565 1.141 2.833v7.083h-2.025l-0.561-1.445h-0.076c-0.304 0.38-0.615 0.691-0.932 0.932s-0.681 0.418-1.093 0.532c-0.412 0.114-0.913 0.171-1.502 0.171-0.627 0-1.192-0.12-1.692-0.361-0.494-0.241-0.884-0.608-1.169-1.103-0.285-0.501-0.428-1.135-0.428-1.901 0-1.128 0.396-1.958 1.188-2.491 0.792-0.539 1.981-0.837 3.565-0.894l1.844-0.057v-0.466c0-0.558-0.146-0.967-0.437-1.226s-0.697-0.39-1.217-0.39c-0.513 0-1.017 0.073-1.512 0.219s-0.989 0.33-1.483 0.551l-0.96-1.958c0.564-0.298 1.195-0.532 1.892-0.704 0.704-0.171 1.429-0.257 2.177-0.257zM20.013 8.975l-1.122 0.038c-0.938 0.025-1.591 0.193-1.958 0.504-0.361 0.311-0.542 0.719-0.542 1.226 0 0.444 0.13 0.761 0.39 0.951 0.26 0.184 0.599 0.276 1.017 0.276 0.621 0 1.144-0.184 1.569-0.551 0.431-0.368 0.646-0.89 0.646-1.569v-0.875z"></path>
      <path d="M12.987 13.899h-3.365l-3.232-5.257-3.232 5.257h-3.156l4.611-7.168-4.316-6.731h3.251l2.995 5.001 2.938-5.001h3.175l-4.364 6.893 4.697 7.007z"></path>
    </symbol>
    <symbol id="icon-logo" viewBox="0 0 32 32">
      <path d="m16.468 20.13-.098-.192c-.372-.715-1.27-1.179-2.066-1.069-.684.094-1.254.663-1.455 1.466-.216.866-.06 1.701.252 2.513.508 1.324 1.313 2.456 2.304 3.458.686.693 1.232.681 1.907-.024.937-.979 1.697-2.078 2.224-3.33.311-.738.54-1.498.574-2.305.025-.583-.05-1.144-.382-1.644-.421-.635-1.114-.822-1.796-.487-.424.208-.759.52-1.023.906-.152.221-.284.456-.44.709zm13.191 3.721a6.853 6.853 0 0 1-.764 3.097c-.853 1.639-2.087 2.91-3.738 3.761-1.628.84-3.297.936-5.002.267a38.172 38.172 0 0 1-2.057-.863c-1.226-.565-2.447-.56-3.701-.09-.881.33-1.774.631-2.677.892a7.297 7.297 0 0 1-2.874.258c-.844-.096-1.556-.47-2.174-1.035-.787-.721-1.418-1.563-1.815-2.556-.51-1.272-.387-2.5.355-3.66.581-.908 1.365-1.632 2.125-2.381a30.77 30.77 0 0 0 1.602-1.689c.587-.675.937-1.49 1.228-2.327.27-.777.515-1.562.781-2.34.192-.562.545-1.03.894-1.503.839-1.141 2.037-1.64 3.359-1.934 1.567-.348 2.933.101 4.098 1.132.717.634 1.338 1.377 2.005 2.068 1.137 1.176 2.343 2.275 3.694 3.203.673.462 1.378.876 2.045 1.345.954.672 1.759 1.487 2.251 2.569.257.567.359 1.167.368 1.786zM14.273 7.668c.003.874-.152 1.817-.566 2.703-.443.948-1.084 1.698-2.138 1.99-.867.24-1.668.047-2.415-.42-.982-.613-1.646-1.503-2.14-2.527a8.833 8.833 0 0 1-.847-4.703c.087-.971.361-1.878.904-2.704.935-1.423 2.617-1.826 4.079-.96.948.562 1.613 1.382 2.118 2.341.689 1.306 1.016 2.703 1.005 4.279zM24.483 5.065c.001 1.78-.327 3.274-1.137 4.64-.453.764-1.032 1.415-1.832 1.833-1.17.612-2.459.387-3.377-.569-.727-.757-1.122-1.678-1.333-2.687-.365-1.744-.177-3.447.441-5.103.299-.802.735-1.535 1.363-2.127.578-.545 1.237-.973 2.058-1.041 1.044-.087 1.864.356 2.52 1.138.676.806 1.013 1.762 1.18 2.783.072.44.094.888.119 1.133zM0 13.646c.014-.795.166-1.543.639-2.191.618-.847 1.482-1.16 2.504-1.096 1.034.065 1.914.511 2.704 1.141 1.407 1.122 2.338 2.555 2.708 4.327.164.784.176 1.576-.098 2.339-.472 1.313-1.547 1.991-2.95 1.883-.872-.068-1.64-.416-2.345-.913C1.643 18.066.666 16.61.171 14.832c-.106-.382-.117-.79-.171-1.187zM31.951 11.166c-.235 2.469-1.24 4.378-3.188 5.753a3.75 3.75 0 0 1-1.814.67c-1.124.114-2.146-.519-2.568-1.601-.371-.952-.35-1.926-.116-2.895.45-1.865 1.452-3.372 3.028-4.477.697-.489 1.489-.689 2.34-.618.989.083 1.825.825 2.115 1.916.117.441.15.904.205 1.251z"/>
    </symbol>
    <symbol id="icon-menu" viewBox="0 0 32 32">
      <path d="M4.936 24.295c-.321 0-.59-.11-.808-.329s-.327-.493-.327-.82c0-.322.109-.591.327-.807s.488-.323.808-.323h22.127c.321 0 .591.11.812.329s.331.49.331.812a1.121 1.121 0 0 1-1.143 1.137H4.936zm0-7.159c-.321 0-.59-.11-.808-.329s-.327-.49-.327-.812c0-.322.109-.591.327-.806s.488-.323.808-.323h22.127c.321 0 .591.11.812.329s.331.49.331.812c0 .322-.11.591-.331.806s-.492.323-.812.323H4.936zm0-7.152c-.321 0-.59-.11-.808-.329s-.327-.493-.327-.82c0-.322.109-.591.327-.806s.488-.323.808-.323h22.127c.321 0 .591.11.812.329s.331.49.331.812a1.117 1.117 0 0 1-1.143 1.138H4.936z"/>
    </symbol>
    <symbol id="icon-instagram" viewBox="0 0 32 32">
      <path d="M15.998 6.161c3.206 0 3.585.014 4.846.071 1.172.052 1.804.248 2.226.412.558.216.961.478 1.378.895.422.422.679.82.9 1.378.164.422.361 1.059.412 2.226.056 1.266.071 1.645.071 4.847s-.014 3.585-.071 4.847c-.052 1.172-.248 1.804-.412 2.227a3.702 3.702 0 0 1-.895 1.377c-.422.422-.82.679-1.378.9-.422.164-1.06.361-2.226.412-1.266.056-1.645.071-4.847.071s-3.585-.014-4.847-.071c-1.172-.052-1.804-.248-2.226-.412a3.714 3.714 0 0 1-1.378-.895 3.767 3.767 0 0 1-.9-1.378c-.164-.422-.361-1.06-.412-2.226-.056-1.266-.071-1.645-.071-4.847s.014-3.585.071-4.847c.052-1.172.248-1.804.412-2.226.216-.558.478-.961.895-1.378.422-.422.82-.679 1.378-.9.422-.164 1.059-.361 2.226-.412 1.261-.056 1.641-.071 4.847-.071h.001zm0-2.16c-3.258 0-3.665.014-4.945.071-1.275.056-2.151.262-2.91.558a5.847 5.847 0 0 0-2.127 1.387A5.883 5.883 0 0 0 4.629 8.14c-.295.764-.502 1.636-.558 2.91C4.015 12.335 4 12.742 4 15.999s.014 3.665.071 4.945c.056 1.275.262 2.151.558 2.91a5.86 5.86 0 0 0 1.387 2.127 5.876 5.876 0 0 0 2.123 1.383c.764.295 1.636.502 2.91.558 1.279.056 1.687.071 4.945.071s3.666-.014 4.945-.071c1.275-.056 2.151-.262 2.91-.558.787-.305 1.458-.717 2.123-1.383s1.078-1.336 1.383-2.123c.295-.764.502-1.635.558-2.91.056-1.279.071-1.687.071-4.945s-.014-3.665-.071-4.945c-.056-1.275-.262-2.151-.558-2.91a5.622 5.622 0 0 0-1.373-2.133 5.876 5.876 0 0 0-2.123-1.383c-.764-.295-1.635-.502-2.91-.558-1.284-.061-1.692-.075-4.949-.075L15.999 4z"/>
      <path d="M15.997 9.836a6.164 6.164 0 1 0 6.163 6.163 6.164 6.164 0 0 0-6.163-6.163zm0 10.161a3.998 3.998 0 1 1 0-7.996 3.998 3.998 0 0 1 0 7.996zM23.842 9.592a1.439 1.439 0 1 1-2.877 0 1.439 1.439 0 0 1 2.877 0z"/>
    </symbol>
    <symbol id="icon-facebook" viewBox="0 0 32 32">
      <path d="M29.333 16.405C29.333 8.996 23.364 2.99 16 2.99S2.667 8.996 2.667 16.405c0 6.696 4.876 12.245 11.25 13.252v-9.374h-3.385v-3.878h3.385V13.45c0-3.362 1.991-5.219 5.036-5.219 1.459 0 2.985.262 2.985.262v3.301h-1.681c-1.656 0-2.173 1.034-2.173 2.095v2.516h3.698l-.591 3.878h-3.107v9.374c6.374-1.006 11.25-6.556 11.25-13.252z"/>
    </symbol>
    <symbol id="icon-close" viewBox="0 0 32 32">
      <path stroke-width="2.667" d="M16 17.867 9.467 24.4c-.244.244-.556.367-.933.367s-.689-.122-.933-.367c-.244-.244-.367-.556-.367-.933s.122-.689.367-.933l6.533-6.533-6.533-6.533c-.244-.244-.367-.556-.367-.933s.122-.689.367-.933c.244-.244.556-.367.933-.367s.689.122.933.367L16 14.135l6.533-6.533c.244-.244.556-.367.933-.367s.689.122.933.367c.244.244.367.556.367.933s-.122.689-.367.933l-6.533 6.533 6.533 6.533c.244.244.367.556.367.933s-.122.689-.367.933c-.244.244-.556.367-.933.367s-.689-.122-.933-.367L16 17.867z"/>
    </symbol>
    <symbol id="icon-arrow_forward" viewBox="0 0 32 32">
      <path stroke-width="2.667" d="M22.54 17.136H6.27a1.102 1.102 0 0 1-1.135-1.135 1.102 1.102 0 0 1 1.135-1.135h16.27l-7.336-7.335c-.227-.227-.341-.494-.344-.801s.109-.575.336-.803c.227-.229.495-.342.803-.339s.577.117.805.344l9.267 9.267a1.091 1.091 0 0 1 .348.805 1.083 1.083 0 0 1-.348.803l-9.275 9.267c-.234.232-.503.348-.806.348s-.567-.117-.794-.35c-.226-.227-.34-.492-.34-.795s.113-.568.34-.794l7.344-7.343z"/>
    </symbol>
    <symbol id="icon-arrow_back" viewBox="0 0 32 32">
      <path stroke-width="2.667" d="m9.46 17.136 7.336 7.335c.227.227.341.494.344.8s-.109.574-.336.803c-.227.229-.494.343-.802.34s-.577-.117-.805-.344L5.93 16.803a1.091 1.091 0 0 1-.348-.805 1.083 1.083 0 0 1 .348-.803l9.275-9.275c.234-.226.503-.34.806-.34s.567.113.794.34c.226.232.34.5.34.803s-.113.569-.34.796l-7.344 7.343h16.27c.325 0 .597.108.816.323s.328.486.328.812-.109.597-.328.812a1.12 1.12 0 0 1-.816.323H9.461z"/>
    </symbol>
    <symbol id="icon-add" viewBox="0 0 32 32">
      <path d="M14.864 17.136H7.603c-.321 0-.59-.11-.808-.329s-.327-.49-.327-.812c0-.322.109-.591.327-.806s.488-.323.808-.323h7.261V7.605c0-.32.11-.591.329-.812s.49-.332.812-.332c.322 0 .591.111.806.332s.323.492.323.812v7.261h7.261c.32 0 .591.11.812.329s.332.49.332.812c0 .322-.111.591-.332.806s-.492.323-.812.323h-7.261v7.261c0 .321-.11.59-.329.808s-.49.327-.812.327c-.322 0-.591-.109-.806-.327s-.323-.488-.323-.808v-7.261z"/>
    </symbol>
    <symbol id="icon-star-empty" viewBox="0 0 32 32">
      <path d="M16.005 1.6c.45 0 .865.255 1.07.655l3.675 7.21 7.995 1.27a1.202 1.202 0 0 1 .665 2.035l-5.725 5.725 1.265 7.995a1.2 1.2 0 0 1-1.73 1.26l-7.215-3.67-7.215 3.67a1.2 1.2 0 0 1-1.73-1.26l1.26-7.995L2.6 12.77c-.32-.32-.43-.79-.29-1.22s.505-.745.955-.815l7.995-1.27 3.68-7.21c.205-.4.62-.655 1.07-.655zm0 3.84-2.89 5.66c-.175.34-.5.58-.88.64l-6.275 1 4.49 4.495c.27.27.395.655.335 1.035l-.99 6.275 5.665-2.88c.34-.175.745-.175 1.09 0l5.665 2.88-.99-6.275a1.2 1.2 0 0 1 .335-1.035l4.49-4.495-6.275-1c-.38-.06-.705-.3-.88-.64l-2.89-5.66z"/>
    </symbol>
    <symbol id="icon-star-full" viewBox="0 0 32 32">
      <path d="M17.075 2.255c-.205-.4-.62-.655-1.07-.655s-.865.255-1.07.655l-3.68 7.21-7.995 1.27a1.202 1.202 0 0 0-.665 2.035l5.72 5.725-1.26 7.995a1.2 1.2 0 0 0 1.73 1.26l7.22-3.67 7.215 3.67a1.2 1.2 0 0 0 1.73-1.26l-1.265-7.995 5.72-5.725c.32-.32.43-.79.29-1.22s-.505-.745-.955-.815l-7.99-1.27-3.675-7.21z"/>
    </symbol>
    <symbol id="icon-star-half" viewBox="0 0 32 32">
      <path d="M16.005 20.88c.5 0 .995.115 1.45.35l3.72 1.895-.65-4.125a3.207 3.207 0 0 1 .895-2.76l2.95-2.955-4.125-.655a3.205 3.205 0 0 1-2.35-1.705l-1.9-3.72v13.68zm8.465 6.77a1.2 1.2 0 0 1-1.25.1l-7.215-3.67-7.215 3.67a1.2 1.2 0 0 1-1.73-1.26l1.26-7.995L2.6 12.77c-.32-.32-.43-.79-.29-1.22s.505-.745.955-.815l7.995-1.27 3.68-7.21c.205-.4.62-.655 1.07-.655s.865.255 1.07.655l3.67 7.21 7.995 1.27a1.202 1.202 0 0 1 .665 2.035l-5.725 5.725 1.265 7.995c.07.445-.115.895-.48 1.16z"/>
    </symbol>
  </defs>
</svg>