<svg xmlns="http://www.w3.org/2000/svg" aria-hidden="true" style="position:absolute;width:0;height:0;overflow:hidden">
  <defs>
    <symbol id="icon-logo" viewBox="0 0 32 32">
      <path d="m16.468 20.13-.098-.192c-.372-.715-1.27-1.179-2.066-1.069-.684.094-1.254.663-1.455 1.466-.216.866-.06 1.701.252 2.513.508 1.324 1.313 2.456 2.304 3.458.686.693 1.232.681 1.907-.024.937-.979 1.697-2.078 2.224-3.33.311-.738.54-1.498.574-2.305.025-.583-.05-1.144-.382-1.644-.421-.635-1.114-.822-1.796-.487-.424.208-.759.52-1.023.906-.152.221-.284.456-.44.709zm13.191 3.721a6.853 6.853 0 0 1-.764 3.097c-.853 1.639-2.087 2.91-3.738 3.761-1.628.84-3.297.936-5.002.267a38.172 38.172 0 0 1-2.057-.863c-1.226-.565-2.447-.56-3.701-.09-.881.33-1.774.631-2.677.892a7.297 7.297 0 0 1-2.874.258c-.844-.096-1.556-.47-2.174-1.035-.787-.721-1.418-1.563-1.815-2.556-.51-1.272-.387-2.5.355-3.66.581-.908 1.365-1.632 2.125-2.381a30.77 30.77 0 0 0 1.602-1.689c.587-.675.937-1.49 1.228-2.327.27-.777.515-1.562.781-2.34.192-.562.545-1.03.894-1.503.839-1.141 2.037-1.64 3.359-1.934 1.567-.348 2.933.101 4.098 1.132.717.634 1.338 1.377 2.005 2.068 1.137 1.176 2.343 2.275 3.694 3.203.673.462 1.378.876 2.045 1.345.954.672 1.759 1.487 2.251 2.569.257.567.359 1.167.368 1.786zM14.273 7.668c.003.874-.152 1.817-.566 2.703-.443.948-1.084 1.698-2.138 1.99-.867.24-1.668.047-2.415-.42-.982-.613-1.646-1.503-2.14-2.527a8.833 8.833 0 0 1-.847-4.703c.087-.971.361-1.878.904-2.704.935-1.423 2.617-1.826 4.079-.96.948.562 1.613 1.382 2.118 2.341.689 1.306 1.016 2.703 1.005 4.279zM24.483 5.065c.001 1.78-.327 3.274-1.137 4.64-.453.764-1.032 1.415-1.832 1.833-1.17.612-2.459.387-3.377-.569-.727-.757-1.122-1.678-1.333-2.687-.365-1.744-.177-3.447.441-5.103.299-.802.735-1.535 1.363-2.127.578-.545 1.237-.973 2.058-1.041 1.044-.087 1.864.356 2.52 1.138.676.806 1.013 1.762 1.18 2.783.072.44.094.888.119 1.133zM0 13.646c.014-.795.166-1.543.639-2.191.618-.847 1.482-1.16 2.504-1.096 1.034.065 1.914.511 2.704 1.141 1.407 1.122 2.338 2.555 2.708 4.327.164.784.176 1.576-.098 2.339-.472 1.313-1.547 1.991-2.95 1.883-.872-.068-1.64-.416-2.345-.913C1.643 18.066.666 16.61.171 14.832c-.106-.382-.117-.79-.171-1.187zM31.951 11.166c-.235 2.469-1.24 4.378-3.188 5.753a3.75 3.75 0 0 1-1.814.67c-1.124.114-2.146-.519-2.568-1.601-.371-.952-.35-1.926-.116-2.895.45-1.865 1.452-3.372 3.028-4.477.697-.489 1.489-.689 2.34-.618.989.083 1.825.825 2.115 1.916.117.441.15.904.205 1.251z"/>
    </symbol>
    <symbol id="icon-menu" viewBox="0 0 32 32">
      <path d="M4.936 24.295c-.321 0-.59-.11-.808-.329s-.327-.493-.327-.82c0-.322.109-.591.327-.807s.488-.323.808-.323h22.127c.321 0 .591.11.812.329s.331.49.331.812a1.121 1.121 0 0 1-1.143 1.137H4.936zm0-7.159c-.321 0-.59-.11-.808-.329s-.327-.49-.327-.812c0-.322.109-.591.327-.806s.488-.323.808-.323h22.127c.321 0 .591.11.812.329s.331.49.331.812c0 .322-.11.591-.331.806s-.492.323-.812.323H4.936zm0-7.152c-.321 0-.59-.11-.808-.329s-.327-.493-.327-.82c0-.322.109-.591.327-.806s.488-.323.808-.323h22.127c.321 0 .591.11.812.329s.331.49.331.812a1.117 1.117 0 0 1-1.143 1.138H4.936z"/>
    </symbol>
    <symbol id="icon-instagram" viewBox="0 0 32 32">
      <path d="M15.998 6.161c3.206 0 3.585.014 4.846.071 1.172.052 1.804.248 2.226.412.558.216.961.478 1.378.895.422.422.679.82.9 1.378.164.422.361 1.059.412 2.226.056 1.266.071 1.645.071 4.847s-.014 3.585-.071 4.847c-.052 1.172-.248 1.804-.412 2.227a3.702 3.702 0 0 1-.895 1.377c-.422.422-.82.679-1.378.9-.422.164-1.06.361-2.226.412-1.266.056-1.645.071-4.847.071s-3.585-.014-4.847-.071c-1.172-.052-1.804-.248-2.226-.412a3.714 3.714 0 0 1-1.378-.895 3.767 3.767 0 0 1-.9-1.378c-.164-.422-.361-1.06-.412-2.226-.056-1.266-.071-1.645-.071-4.847s.014-3.585.071-4.847c.052-1.172.248-1.804.412-2.226.216-.558.478-.961.895-1.378.422-.422.82-.679 1.378-.9.422-.164 1.059-.361 2.226-.412 1.261-.056 1.641-.071 4.847-.071h.001zm0-2.16c-3.258 0-3.665.014-4.945.071-1.275.056-2.151.262-2.91.558a5.847 5.847 0 0 0-2.127 1.387A5.883 5.883 0 0 0 4.629 8.14c-.295.764-.502 1.636-.558 2.91C4.015 12.335 4 12.742 4 15.999s.014 3.665.071 4.945c.056 1.275.262 2.151.558 2.91a5.86 5.86 0 0 0 1.387 2.127 5.876 5.876 0 0 0 2.123 1.383c.764.295 1.636.502 2.91.558 1.279.056 1.687.071 4.945.071s3.666-.014 4.945-.071c1.275-.056 2.151-.262 2.91-.558.787-.305 1.458-.717 2.123-1.383s1.078-1.336 1.383-2.123c.295-.764.502-1.635.558-2.91.056-1.279.071-1.687.071-4.945s-.014-3.665-.071-4.945c-.056-1.275-.262-2.151-.558-2.91a5.622 5.622 0 0 0-1.373-2.133 5.876 5.876 0 0 0-2.123-1.383c-.764-.295-1.635-.502-2.91-.558-1.284-.061-1.692-.075-4.949-.075L15.999 4z"/>
      <path d="M15.997 9.836a6.164 6.164 0 1 0 6.163 6.163 6.164 6.164 0 0 0-6.163-6.163zm0 10.161a3.998 3.998 0 1 1 0-7.996 3.998 3.998 0 0 1 0 7.996zM23.842 9.592a1.439 1.439 0 1 1-2.877 0 1.439 1.439 0 0 1 2.877 0z"/>
    </symbol>
    <symbol id="icon-facebook" viewBox="0 0 32 32">
      <path d="M29.333 16.405C29.333 8.996 23.364 2.99 16 2.99S2.667 8.996 2.667 16.405c0 6.696 4.876 12.245 11.25 13.252v-9.374h-3.385v-3.878h3.385V13.45c0-3.362 1.991-5.219 5.036-5.219 1.459 0 2.985.262 2.985.262v3.301h-1.681c-1.656 0-2.173 1.034-2.173 2.095v2.516h3.698l-.591 3.878h-3.107v9.374c6.374-1.006 11.25-6.556 11.25-13.252z"/>
    </symbol>
    <symbol id="icon-close" viewBox="0 0 32 32">
      <path stroke-width="2.667" d="M16 17.867 9.467 24.4c-.244.244-.556.367-.933.367s-.689-.122-.933-.367c-.244-.244-.367-.556-.367-.933s.122-.689.367-.933l6.533-6.533-6.533-6.533c-.244-.244-.367-.556-.367-.933s.122-.689.367-.933c.244-.244.556-.367.933-.367s.689.122.933.367L16 14.135l6.533-6.533c.244-.244.556-.367.933-.367s.689.122.933.367c.244.244.367.556.367.933s-.122.689-.367.933l-6.533 6.533 6.533 6.533c.244.244.367.556.367.933s-.122.689-.367.933c-.244.244-.556.367-.933.367s-.689-.122-.933-.367L16 17.867z"/>
    </symbol>
    <symbol id="icon-arrow_forward" viewBox="0 0 32 32">
      <path stroke-width="2.667" d="M22.54 17.136H6.27a1.102 1.102 0 0 1-1.135-1.135 1.102 1.102 0 0 1 1.135-1.135h16.27l-7.336-7.335c-.227-.227-.341-.494-.344-.801s.109-.575.336-.803c.227-.229.495-.342.803-.339s.577.117.805.344l9.267 9.267a1.091 1.091 0 0 1 .348.805 1.083 1.083 0 0 1-.348.803l-9.275 9.267c-.234.232-.503.348-.806.348s-.567-.117-.794-.35c-.226-.227-.34-.492-.34-.795s.113-.568.34-.794l7.344-7.343z"/>
    </symbol>
    <symbol id="icon-arrow_back" viewBox="0 0 32 32">
      <path stroke-width="2.667" d="m9.46 17.136 7.336 7.335c.227.227.341.494.344.8s-.109.574-.336.803c-.227.229-.494.343-.802.34s-.577-.117-.805-.344L5.93 16.803a1.091 1.091 0 0 1-.348-.805 1.083 1.083 0 0 1 .348-.803l9.275-9.275c.234-.226.503-.34.806-.34s.567.113.794.34c.226.232.34.5.34.803s-.113.569-.34.796l-7.344 7.343h16.27c.325 0 .597.108.816.323s.328.486.328.812-.109.597-.328.812a1.12 1.12 0 0 1-.816.323H9.461z"/>
    </symbol>
    <symbol id="icon-add" viewBox="0 0 32 32">
      <path d="M14.864 17.136H7.603c-.321 0-.59-.11-.808-.329s-.327-.49-.327-.812c0-.322.109-.591.327-.806s.488-.323.808-.323h7.261V7.605c0-.32.11-.591.329-.812s.49-.332.812-.332c.322 0 .591.111.806.332s.323.492.323.812v7.261h7.261c.32 0 .591.11.812.329s.332.49.332.812c0 .322-.111.591-.332.806s-.492.323-.812.323h-7.261v7.261c0 .321-.11.59-.329.808s-.49.327-.812.327c-.322 0-.591-.109-.806-.327s-.323-.488-.323-.808v-7.261z"/>
    </symbol>
  </defs>
</svg>